#!OML:ASF H:\Dans Jumps\Project 1\Capture day 1\Session 1\subject.ASF
:FULLY-SPECIFIED
:DEGREES
445
root 0.203918 17.8458 4.33458 11.1873 1.39657 -1.25878
lowerback -3.18389 0.543376 0.0775973
upperback 1.9531 0.687171 0.973531
thorax 3.78493 0.330511 1.00326
lowerneck -11.0251 -1.06848 -2.39095
upperneck 32.8696 -1.63646 2.1311
head 12.797 -0.732154 1.01813
rclavicle -1.30701e-014 -1.55052e-014
rhumerus -28.9616 -9.07089 -82.5306
rradius 29.0063
rwrist 29.3762
rhand -27.9685 -30.9235
rfingers 7.12502
rthumb -1.3555 -60.8989
lclavicle -1.30701e-014 -1.55052e-014
lhumerus -38.5421 -6.20262 87.1727
lradius 26.459
lwrist 13.8366
lhand -24.9004 -4.68243
lfingers 7.12502
lthumb 1.60777 25.2913
rfemur -13.7734 -4.028 20.2314
rtibia 18.5655
rfoot -12.6492 1.57914
rtoes 20.151
lfemur -13.3165 6.53105 -17.222
ltibia 16.9101
lfoot -8.69576 5.35989
ltoes -1.48809
446
root 0.202817 17.8337 4.34519 11.1617 1.3524 -1.25665
lowerback -3.30346 0.547025 0.112433
upperback 1.92131 0.689804 0.973876
thorax 3.82004 0.332659 0.985431
lowerneck -11.0244 -1.05807 -2.39551
upperneck 32.9024 -1.61524 2.11348
head 12.8099 -0.725702 1.01537
rclavicle -4.17448e-015 -4.96962e-015
rhumerus -28.809 -9.31714 -82.3474
rradius 28.6746
rwrist 29.8672
rhand -27.8968 -30.8622
rfingers 7.12502
rthumb -1.28628 -60.8381
lclavicle -4.17448e-015 -4.96962e-015
lhumerus -38.2664 -6.28138 87.2862
lradius 26.778
lwrist 13.9128
lhand -24.9328 -4.84875
lfingers 7.12502
lthumb 1.57647 25.1252
rfemur -13.6885 -4.10916 20.2504
rtibia 18.542
rfoot -12.8633 1.60421
rtoes 20.2308
lfemur -13.212 6.56471 -17.2215
ltibia 16.8838
lfoot -8.91012 5.45669
ltoes -1.39545
447
root 0.201888 17.8215 4.35501 11.1496 1.30289 -1.25242
lowerback -3.42817 0.551982 0.144098
upperback 1.88131 0.694298 0.97409
thorax 3.8495 0.335684 0.969369
lowerneck -11.0281 -1.04782 -2.40382
upperneck 32.9372 -1.59472 2.10031
head 12.8248 -0.719445 1.01489
rclavicle -1.54058e-015 1.98785e-015
rhumerus -28.6656 -9.59338 -82.1554
rradius 28.3666
rwrist 30.331
rhand -27.8085 -30.8008
rfingers 7.12502
rthumb -1.20096 -60.7772
lclavicle -1.54058e-015 1.98785e-015
lhumerus -37.9789 -6.29734 87.3681
lradius 27.1009
lwrist 13.959
lhand -24.9466 -4.94962
lfingers 7.12502
lthumb 1.56317 25.0244
rfemur -13.6276 -4.1762 20.2675
rtibia 18.5253
rfoot -13.0765 1.61128
rtoes 20.245
lfemur -13.1271 6.59548 -17.2325
ltibia 16.8574
lfoot -9.12712 5.58507
ltoes -1.20228
448
root 0.201147 17.8098 4.36376 11.1465 1.24781 -1.2465
lowerback -3.54707 0.558096 0.174554
upperback 1.83356 0.700494 0.972647
thorax 3.86762 0.339586 0.952262
lowerneck -11.0381 -1.03766 -2.41305
upperneck 32.9736 -1.57521 2.09075
head 12.8417 -0.713274 1.01583
rclavicle 2.03754e-015 2.5842e-015
rhumerus -28.5369 -9.89206 -81.9623
rradius 28.0951
rwrist 30.7304
rhand -27.6989 -30.7537
rfingers 7.12502
rthumb -1.09511 -60.7306
lclavicle 2.03754e-015 2.5842e-015
lhumerus -37.6812 -6.24933 87.4176
lradius 27.428
lwrist 13.9762
lhand -25.0304 -5.11897
lfingers 7.12502
lthumb 1.48224 24.8556
rfemur -13.5883 -4.22884 20.282
rtibia 18.5189
rfoot -13.2795 1.60617
rtoes 20.2212
lfemur -13.0515 6.62355 -17.2532
ltibia 16.8201
lfoot -9.32262 5.7378
ltoes -1.0116
449
root 0.20066 17.7992 4.37122 11.1435 1.18957 -1.25136
lowerback -3.64977 0.564483 0.216687
upperback 1.78291 0.706439 0.973472
thorax 3.87369 0.343662 0.930708
lowerneck -11.057 -1.02704 -2.42047
upperneck 33.0076 -1.55558 2.08202
head 12.8596 -0.706713 1.01674
rclavicle -7.25564e-015 -3.37934e-015
rhumerus -28.4152 -10.203 -81.7734
rradius 27.8583
rwrist 31.0388
rhand -27.5735 -30.7117
rfingers 7.12502
rthumb -0.973945 -60.6892
lclavicle -7.25564e-015 -3.37934e-015
lhumerus -37.3734 -6.1441 87.4417
lradius 27.7642
lwrist 13.9721
lhand -25.0799 -5.1617
lfingers 7.12502
lthumb 1.43442 24.8132
rfemur -13.5627 -4.26583 20.3061
rtibia 18.524
rfoot -13.4638 1.5951
rtoes 20.1852
lfemur -12.973 6.64895 -17.2674
ltibia 16.7642
lfoot -9.49794 5.9085
ltoes -0.780522
